<?xml version='1.0' encoding='ascii'?>
<svg xmlns="http://www.w3.org/2000/svg" xmlns:inkscape="http://www.inkscape.org/namespaces/inkscape" version="1.1" width="1080" height="1080">
    <g id="ViewLayer_LineSet" inkscape:groupmode="lineset" inkscape:label="ViewLayer_LineSet">
        <g xmlns:inkscape="http://www.inkscape.org/namespaces/inkscape" inkscape:groupmode="layer" inkscape:label="fills" id="fills">
            <path fill_rule="evenodd" stroke="none" fill-opacity="1.0" fill="rgb(204, 204, 204)" d=" M 399.479, 703.558 475.055, 739.259 685.633, 650.875 685.633, 609.768 610.057, 574.068 535.733, 538.958 497.353, 520.829 286.775, 609.213 286.775, 650.319 325.155, 668.449 399.479, 703.558  z" />
        </g>
        <g inkscape:groupmode="layer" id="strokes" inkscape:label="strokes">
            <path fill="none" stroke-width="3.0" stroke-linecap="butt" stroke-opacity="1.0" stroke="rgb(0, 0, 0)" stroke-linejoin="miter" d=" M 399.479, 703.558 408.521, 707.829 417.563, 712.101 426.605, 716.372 435.647, 720.643 444.689, 724.914 453.730, 729.186 462.772, 733.457 471.814, 737.728 475.055, 739.259 484.276, 735.389 493.496, 731.518 502.717, 727.648 511.938, 723.778 521.159, 719.908 530.379, 716.038 539.600, 712.168 548.821, 708.298 558.042, 704.427 567.262, 700.557 576.483, 696.687 585.704, 692.817 594.925, 688.947 604.145, 685.077 613.366, 681.207 622.587, 677.337 631.807, 673.466 641.028, 669.596 650.249, 665.726 659.470, 661.856 668.690, 657.986 677.911, 654.116 685.633, 650.875 685.633, 640.875 685.633, 630.875 685.633, 620.875 685.633, 610.875 685.633, 609.768 676.591, 605.497 667.549, 601.226 658.507, 596.954 649.465, 592.683 640.423, 588.412 631.382, 584.141 622.340, 579.870 613.298, 575.598 610.057, 574.068 601.015, 569.796 591.973, 565.525 582.931, 561.254 573.889, 556.983 564.847, 552.711 555.805, 548.440 546.764, 544.169 537.722, 539.898 535.733, 538.958 526.691, 534.687 517.649, 530.416 508.607, 526.145 499.565, 521.874 497.353, 520.829 488.132, 524.699 478.911, 528.569 469.691, 532.439 460.470, 536.309 451.249, 540.179 442.028, 544.049 432.808, 547.919 423.587, 551.790 414.366, 555.660 405.145, 559.530 395.925, 563.400 386.704, 567.270 377.483, 571.140 368.262, 575.010 359.042, 578.881 349.821, 582.751 340.600, 586.621 331.380, 590.491 322.159, 594.361 312.938, 598.231 303.717, 602.101 294.497, 605.972 286.775, 609.213 286.775, 619.213 286.775, 629.213 286.775, 639.213 286.775, 649.213 286.775, 650.319 295.816, 654.591 304.858, 658.862 313.900, 663.133 322.942, 667.404 325.155, 668.449 334.196, 672.720 343.238, 676.992 352.280, 681.263 361.322, 685.534 370.364, 689.805 379.406, 694.076 388.448, 698.348 397.490, 702.619 399.479, 703.558 " />
            <path fill="none" stroke-width="3.0" stroke-linecap="butt" stroke-opacity="1.0" stroke="rgb(0, 0, 0)" stroke-linejoin="miter" d=" M 475.055, 739.259 475.055, 729.259 475.055, 719.259 475.055, 709.259 475.055, 699.259 475.055, 698.152 " />
            <path fill="none" stroke-width="3.0" stroke-linecap="butt" stroke-opacity="1.0" stroke="rgb(0, 0, 0)" stroke-linejoin="miter" d=" M 286.775, 609.213 295.816, 613.484 304.858, 617.755 313.900, 622.026 322.942, 626.297 325.155, 627.342 334.196, 631.614 343.238, 635.885 352.280, 640.156 361.322, 644.427 370.364, 648.699 379.406, 652.970 388.448, 657.241 397.490, 661.512 399.479, 662.452 408.521, 666.723 417.563, 670.994 426.605, 675.265 435.647, 679.536 444.689, 683.808 453.730, 688.079 462.772, 692.350 471.814, 696.621 475.055, 698.152 484.276, 694.282 493.496, 690.412 502.717, 686.542 511.938, 682.672 521.159, 678.801 530.379, 674.931 539.600, 671.061 548.821, 667.191 558.042, 663.321 567.262, 659.451 576.483, 655.581 585.704, 651.710 594.925, 647.840 604.145, 643.970 613.366, 640.100 622.587, 636.230 631.807, 632.360 641.028, 628.490 650.249, 624.619 659.470, 620.749 668.690, 616.879 677.911, 613.009 685.633, 609.768 " />
        </g>
    </g>
</svg>
