<?xml version='1.0' encoding='ascii'?>
<svg xmlns="http://www.w3.org/2000/svg" xmlns:inkscape="http://www.inkscape.org/namespaces/inkscape" version="1.1" width="1080" height="1080">
    <g id="ViewLayer_LineSet" inkscape:groupmode="lineset" inkscape:label="ViewLayer_LineSet">
        <g xmlns:inkscape="http://www.inkscape.org/namespaces/inkscape" inkscape:groupmode="layer" inkscape:label="fills" id="fills">
            <path fill_rule="evenodd" stroke="none" fill-opacity="1.0" fill="rgb(204, 204, 204)" d=" M 779.174, 544.193 854.750, 579.893 1064.280, 491.949 1064.280, 450.842 988.703, 415.142 914.379, 380.033  z" />
            <path fill_rule="evenodd" stroke="none" fill-opacity="1.0" fill="rgb(204, 204, 204)" d=" M 382.424, 391.572 298.390, 426.843 87.812, 515.227 87.812, 556.334 238.754, 627.635 23.981, 717.780 23.981, 758.887 125.056, 806.632 21.125, 850.254 21.125, 891.361 329.515, 1037.037 408.445, 1074.322 686.250, 957.721 686.250, 916.614 653.399, 901.096 778.187, 848.720 857.117, 886.005 1064.376, 799.014 1064.376, 757.907 985.446, 720.622 690.628, 581.357 694.091, 579.904 779.174, 544.193 779.174, 544.193  z" />
            <path fill_rule="evenodd" stroke="none" fill-opacity="1.0" fill="rgb(204, 204, 204)" d=" M 914.379, 380.033 875.999, 361.903 739.235, 297.299 971.599, 199.771 971.599, 158.664 657.865, 10.464 180.492, 210.827 180.492, 251.933 432.027, 370.753 382.424, 391.572  z" />
        </g>
        <g inkscape:groupmode="layer" id="strokes" inkscape:label="strokes">
            <path fill="none" stroke-width="3.0" stroke-linecap="butt" stroke-opacity="1.0" stroke="rgb(0, 0, 0)" stroke-linejoin="miter" d=" M 971.599, 158.664 962.378, 162.534 953.157, 166.404 943.936, 170.274 934.716, 174.145 925.495, 178.015 916.274, 181.885 907.054, 185.755 897.833, 189.625 888.612, 193.495 879.391, 197.365 870.171, 201.236 860.950, 205.106 851.729, 208.976 842.508, 212.846 833.288, 216.716 824.067, 220.586 814.846, 224.456 805.625, 228.327 796.405, 232.197 787.184, 236.067 777.963, 239.937 768.742, 243.807 759.522, 247.677 750.301, 251.547 741.080, 255.417 731.859, 259.288 722.639, 263.158 713.418, 267.028 704.197, 270.898 693.156, 275.532 683.936, 279.402 674.715, 283.272 665.494, 287.142 656.273, 291.013 647.053, 294.883 637.832, 298.753 628.611, 302.623 619.391, 306.493 610.170, 310.363 600.949, 314.233 591.728, 318.104 582.508, 321.974 573.287, 325.844 564.066, 329.714 554.845, 333.584 545.625, 337.454 536.404, 341.324 527.183, 345.195 517.962, 349.065 508.742, 352.935 499.521, 356.805 494.226, 359.027 " />
            <path fill="none" stroke-width="3.0" stroke-linecap="butt" stroke-opacity="1.0" stroke="rgb(0, 0, 0)" stroke-linejoin="miter" d=" M 494.226, 400.134 494.226, 390.134 494.226, 380.134 494.226, 370.134 494.226, 360.134 494.226, 359.027 485.184, 354.756 478.106, 351.413 469.064, 347.141 460.022, 342.870 450.980, 338.599 441.938, 334.328 432.896, 330.056 423.854, 325.785 414.812, 321.514 405.770, 317.243 396.728, 312.972 387.686, 308.700 378.644, 304.429 369.602, 300.158 360.560, 295.887 351.518, 291.616 342.477, 287.344 333.435, 283.073 324.393, 278.802 315.351, 274.531 306.309, 270.260 297.267, 265.988 288.225, 261.717 279.183, 257.446 270.141, 253.175 261.099, 248.903 252.057, 244.632 243.015, 240.361 233.973, 236.090 224.931, 231.819 215.889, 227.547 206.847, 223.276 197.805, 219.005 188.763, 214.734 180.492, 210.827 " />
            <path fill="none" stroke-width="3.0" stroke-linecap="butt" stroke-opacity="1.0" stroke="rgb(0, 0, 0)" stroke-linejoin="miter" d=" M 657.865, 10.464 648.645, 14.334 639.424, 18.204 630.203, 22.074 620.982, 25.944 611.762, 29.814 602.541, 33.684 593.320, 37.554 584.099, 41.425 574.879, 45.295 565.658, 49.165 556.437, 53.035 547.216, 56.905 537.996, 60.775 528.775, 64.645 519.554, 68.516 510.333, 72.386 501.113, 76.256 491.892, 80.126 482.671, 83.996 473.451, 87.866 464.230, 91.736 455.009, 95.606 445.788, 99.477 436.568, 103.347 427.347, 107.217 418.126, 111.087 408.905, 114.957 399.685, 118.827 390.464, 122.697 381.243, 126.568 372.022, 130.438 362.802, 134.308 353.581, 138.178 344.360, 142.048 335.139, 145.918 325.919, 149.788 316.698, 153.659 307.477, 157.529 298.256, 161.399 289.036, 165.269 279.815, 169.139 270.594, 173.009 261.374, 176.879 252.153, 180.749 242.932, 184.620 233.711, 188.490 224.491, 192.360 215.270, 196.230 206.049, 200.100 196.828, 203.970 187.608, 207.840 180.492, 210.827 180.492, 220.827 180.492, 230.827 180.492, 240.827 180.492, 250.827 180.492, 251.933 189.534, 256.205 198.576, 260.476 207.618, 264.747 216.660, 269.018 225.702, 273.289 234.744, 277.561 243.786, 281.832 252.828, 286.103 261.870, 290.374 270.912, 294.646 279.954, 298.917 288.996, 303.188 298.038, 307.459 307.080, 311.730 316.122, 316.002 325.164, 320.273 334.206, 324.544 343.247, 328.815 352.289, 333.086 361.331, 337.358 370.373, 341.629 379.415, 345.900 388.457, 350.171 397.499, 354.442 406.541, 358.714 415.583, 362.985 424.625, 367.256 432.027, 370.753 441.069, 375.024 450.111, 379.295 459.153, 383.566 468.195, 387.838 477.237, 392.109 478.106, 392.519 487.148, 396.790 494.226, 400.134 503.447, 396.264 512.667, 392.394 521.888, 388.524 531.109, 384.653 540.330, 380.783 549.550, 376.913 558.771, 373.043 567.992, 369.173 577.213, 365.303 586.433, 361.433 595.654, 357.562 604.875, 353.692 614.095, 349.822 623.316, 345.952 632.537, 342.082 641.758, 338.212 650.978, 334.342 660.199, 330.472 669.420, 326.601 678.641, 322.731 687.861, 318.861 693.156, 316.639 702.377, 312.769 711.598, 308.898 720.819, 305.028 730.039, 301.158 739.235, 297.299 748.456, 293.428 757.677, 289.558 766.897, 285.688 776.118, 281.818 785.339, 277.948 794.560, 274.078 803.780, 270.208 813.001, 266.337 822.222, 262.467 831.442, 258.597 840.663, 254.727 849.884, 250.857 859.105, 246.987 868.325, 243.117 877.546, 239.247 886.767, 235.376 895.988, 231.506 905.208, 227.636 914.429, 223.766 923.650, 219.896 932.871, 216.026 942.091, 212.156 951.312, 208.285 960.533, 204.415 971.599, 199.771 971.599, 189.771 971.599, 179.771 971.599, 169.771 971.599, 159.771 971.599, 158.664 962.557, 154.393 953.515, 150.122 944.473, 145.850 935.431, 141.579 926.389, 137.308 917.347, 133.037 908.305, 128.766 899.263, 124.494 890.221, 120.223 881.179, 115.952 872.137, 111.681 863.095, 107.410 854.053, 103.138 845.011, 98.867 835.970, 94.596 826.928, 90.325 817.886, 86.053 808.844, 81.782 799.802, 77.511 790.760, 73.240 781.718, 68.969 772.676, 64.697 763.634, 60.426 754.592, 56.155 745.550, 51.884 736.508, 47.613 727.466, 43.341 718.424, 39.070 709.382, 34.799 700.340, 30.528 691.298, 26.256 682.256, 21.985 673.215, 17.714 664.173, 13.443 657.865, 10.464 " />
            <path fill="none" stroke-width="3.0" stroke-linecap="butt" stroke-opacity="1.0" stroke="rgb(0, 0, 0)" stroke-linejoin="miter" d=" M 779.174, 503.086 769.953, 506.956 760.732, 510.826 751.511, 514.696 742.291, 518.567 733.095, 522.426 723.874, 526.296 714.654, 530.166 705.433, 534.036 696.212, 537.907 694.091, 538.797 684.870, 542.667 675.650, 546.537 666.429, 550.407 657.208, 554.277 647.987, 558.148 638.767, 562.018 629.546, 565.888 620.325, 569.758 611.104, 573.628 610.057, 574.068 " />
            <path fill="none" stroke-width="3.0" stroke-linecap="butt" stroke-opacity="1.0" stroke="rgb(0, 0, 0)" stroke-linejoin="miter" d=" M 610.057, 574.068 601.015, 569.796 591.973, 565.525 582.931, 561.254 581.811, 560.725 572.769, 556.454 563.727, 552.183 554.685, 547.911 545.643, 543.640 536.602, 539.369 535.733, 538.958 " />
            <path fill="none" stroke-width="3.0" stroke-linecap="butt" stroke-opacity="1.0" stroke="rgb(0, 0, 0)" stroke-linejoin="miter" d=" M 704.849, 467.977 695.629, 471.847 686.408, 475.717 677.187, 479.587 667.966, 483.457 658.746, 487.328 649.525, 491.198 640.304, 495.068 631.083, 498.938 621.863, 502.808 619.767, 503.688 " />
            <path fill="none" stroke-width="3.0" stroke-linecap="butt" stroke-opacity="1.0" stroke="rgb(0, 0, 0)" stroke-linejoin="miter" d=" M 656.136, 595.834 665.357, 591.964 674.577, 588.094 677.056, 587.053 686.277, 583.183 690.628, 581.357 694.091, 579.904 703.312, 576.033 712.533, 572.163 721.753, 568.293 730.974, 564.423 740.195, 560.553 749.416, 556.683 758.636, 552.813 767.857, 548.942 777.078, 545.072 779.174, 544.193 779.174, 544.193 779.174, 534.193 779.174, 524.193 779.174, 514.193 779.174, 504.193 779.174, 503.086 770.132, 498.815 761.090, 494.544 752.048, 490.272 750.928, 489.743 " />
            <path fill="none" stroke-width="3.0" stroke-linecap="butt" stroke-opacity="1.0" stroke="rgb(0, 0, 0)" stroke-linejoin="miter" d=" M 914.379, 380.033 905.337, 375.761 896.295, 371.490 887.253, 367.219 878.211, 362.948 875.999, 361.903 866.957, 357.632 857.915, 353.360 848.873, 349.089 839.831, 344.818 830.789, 340.547 821.747, 336.276 812.706, 332.004 803.664, 327.733 794.622, 323.462 785.580, 319.191 776.538, 314.920 767.496, 310.648 758.454, 306.377 749.412, 302.106 739.235, 297.299 " />
            <path fill="none" stroke-width="3.0" stroke-linecap="butt" stroke-opacity="1.0" stroke="rgb(0, 0, 0)" stroke-linejoin="miter" d=" M 914.379, 380.033 905.158, 383.903 895.938, 387.773 886.717, 391.643 877.496, 395.513 868.275, 399.383 859.055, 403.253 849.834, 407.124 840.613, 410.994 831.393, 414.864 822.172, 418.734 812.951, 422.604 803.730, 426.474 794.510, 430.344 785.289, 434.215 776.068, 438.085 766.847, 441.955 757.627, 445.825 748.406, 449.695 739.185, 453.565 729.964, 457.435 720.744, 461.306 711.523, 465.176 704.849, 467.977 695.629, 471.847 686.408, 475.717 677.187, 479.587 667.966, 483.457 658.746, 487.327 649.525, 491.198 640.304, 495.068 631.083, 498.938 621.863, 502.808 619.767, 503.688 " />
            <path fill="none" stroke-width="3.0" stroke-linecap="butt" stroke-opacity="1.0" stroke="rgb(0, 0, 0)" stroke-linejoin="miter" d=" M 619.767, 503.688 619.767, 503.688 610.725, 499.416 601.683, 495.145 592.641, 490.874 583.599, 486.603 574.557, 482.332 565.515, 478.060 556.473, 473.789 547.431, 469.518 538.389, 465.247 529.347, 460.975 520.305, 456.704 511.263, 452.433 502.222, 448.162 493.180, 443.891 484.138, 439.619 475.096, 435.348 466.054, 431.077 457.012, 426.806 447.970, 422.535 438.928, 418.263 429.886, 413.992 420.844, 409.721 411.802, 405.450 402.760, 401.179 393.718, 396.907 382.424, 391.572 391.645, 387.702 400.865, 383.832 410.086, 379.962 419.307, 376.092 428.528, 372.221 432.027, 370.753 " />
            <path fill="none" stroke-width="3.0" stroke-linecap="butt" stroke-opacity="1.0" stroke="rgb(0, 0, 0)" stroke-linejoin="miter" d=" M 779.174, 544.193 788.216, 548.464 797.258, 552.735 806.299, 557.006 815.341, 561.277 824.383, 565.549 833.425, 569.820 842.467, 574.091 851.509, 578.362 854.750, 579.893 863.970, 576.023 873.191, 572.153 882.412, 568.283 891.633, 564.412 900.853, 560.542 910.074, 556.672 919.295, 552.802 928.516, 548.932 937.736, 545.062 946.957, 541.192 956.178, 537.321 965.399, 533.451 974.619, 529.581 983.840, 525.711 993.061, 521.841 1002.282, 517.971 1011.502, 514.101 1020.723, 510.231 1029.944, 506.360 1039.165, 502.490 1048.385, 498.620 1057.606, 494.750 1064.280, 491.949 1064.280, 481.949 1064.280, 471.949 1064.280, 461.949 1064.280, 451.949 1064.280, 450.842 1055.238, 446.571 1046.196, 442.300 1037.154, 438.029 1028.112, 433.757 1019.070, 429.486 1010.028, 425.215 1000.986, 420.944 991.944, 416.673 988.703, 415.142 979.662, 410.871 970.620, 406.599 961.578, 402.328 952.536, 398.057 943.494, 393.786 934.452, 389.515 925.410, 385.243 916.368, 380.972 914.379, 380.033 905.158, 383.903 895.938, 387.773 886.717, 391.643 877.496, 395.513 868.301, 399.373 859.080, 403.243 849.859, 407.113 840.638, 410.983 831.418, 414.853 822.197, 418.724 812.976, 422.594 803.755, 426.464 794.535, 430.334 785.314, 434.204 776.093, 438.074 766.872, 441.944 757.652, 445.814 748.431, 449.685 739.210, 453.555 729.989, 457.425 720.769, 461.295 711.548, 465.165 704.849, 467.977 704.849, 467.977 " />
            <path fill="none" stroke-width="3.0" stroke-linecap="butt" stroke-opacity="1.0" stroke="rgb(0, 0, 0)" stroke-linejoin="miter" d=" M 854.750, 579.893 854.750, 569.893 854.750, 559.893 854.750, 549.893 854.750, 539.893 854.750, 538.786 " />
            <path fill="none" stroke-width="3.0" stroke-linecap="butt" stroke-opacity="1.0" stroke="rgb(0, 0, 0)" stroke-linejoin="miter" d=" M 704.849, 467.977 713.891, 472.248 722.933, 476.519 731.975, 480.790 741.017, 485.062 750.059, 489.333 750.928, 489.743 759.970, 494.014 769.012, 498.286 778.054, 502.557 779.174, 503.086 788.216, 507.357 797.258, 511.628 806.299, 515.899 815.341, 520.171 824.383, 524.442 833.425, 528.713 842.467, 532.984 851.509, 537.256 854.750, 538.786 863.970, 534.916 873.191, 531.046 882.412, 527.176 891.633, 523.306 900.853, 519.436 910.074, 515.565 919.295, 511.695 928.516, 507.825 937.736, 503.955 946.957, 500.085 956.178, 496.215 965.399, 492.345 974.619, 488.474 983.840, 484.604 993.061, 480.734 1002.282, 476.864 1011.502, 472.994 1020.723, 469.124 1029.944, 465.254 1039.165, 461.384 1048.385, 457.513 1057.606, 453.643 1064.280, 450.842 " />
            <path fill="none" stroke-width="3.0" stroke-linecap="butt" stroke-opacity="1.0" stroke="rgb(0, 0, 0)" stroke-linejoin="miter" d=" M 619.767, 503.688 610.546, 507.558 601.325, 511.428 592.105, 515.298 582.884, 519.168 573.688, 523.028 564.467, 526.898 555.247, 530.768 546.026, 534.638 536.805, 538.508 535.733, 538.958 526.691, 534.687 517.649, 530.416 508.607, 526.145 499.565, 521.874 497.353, 520.829 488.132, 524.699 478.911, 528.569 469.691, 532.439 460.470, 536.309 451.249, 540.179 442.028, 544.049 432.808, 547.919 423.587, 551.790 414.366, 555.660 405.145, 559.530 395.925, 563.400 386.704, 567.270 377.483, 571.140 368.262, 575.010 359.042, 578.881 349.821, 582.751 340.600, 586.621 331.380, 590.491 324.586, 593.343 315.365, 597.213 306.144, 601.083 296.923, 604.953 287.703, 608.823 286.775, 609.213 " />
            <path fill="none" stroke-width="3.0" stroke-linecap="butt" stroke-opacity="1.0" stroke="rgb(0, 0, 0)" stroke-linejoin="miter" d=" M 619.767, 503.688 619.767, 503.688 610.725, 499.416 601.683, 495.145 592.641, 490.874 583.599, 486.603 574.557, 482.332 565.515, 478.060 556.473, 473.789 547.431, 469.518 538.389, 465.247 529.347, 460.975 520.305, 456.704 511.263, 452.433 502.222, 448.162 493.180, 443.891 484.138, 439.619 475.096, 435.348 466.054, 431.077 457.012, 426.806 447.970, 422.535 438.928, 418.263 428.503, 413.339 419.461, 409.067 410.419, 404.796 401.377, 400.525 392.335, 396.254 383.293, 391.983 382.424, 391.572 373.203, 395.442 363.982, 399.312 354.762, 403.183 345.541, 407.053 336.320, 410.923 327.099, 414.793 317.879, 418.663 308.658, 422.533 299.437, 426.403 298.390, 426.843 289.169, 430.713 279.948, 434.583 270.728, 438.453 261.507, 442.323 252.286, 446.194 243.065, 450.064 233.845, 453.934 224.624, 457.804 215.403, 461.674 206.183, 465.544 196.962, 469.414 187.741, 473.285 178.520, 477.155 169.300, 481.025 160.079, 484.895 150.858, 488.765 141.637, 492.635 132.417, 496.505 123.196, 500.376 113.975, 504.246 104.754, 508.116 95.534, 511.986 87.812, 515.227 87.812, 525.227 87.812, 535.227 87.812, 545.227 87.812, 555.227 87.812, 556.334 96.854, 560.605 105.895, 564.876 114.937, 569.147 123.979, 573.419 133.021, 577.690 142.063, 581.961 151.105, 586.232 160.147, 590.503 169.189, 594.775 178.231, 599.046 187.273, 603.317 196.315, 607.588 205.357, 611.859 214.399, 616.131 223.441, 620.402 232.483, 624.673 238.754, 627.635 247.796, 631.906 256.837, 636.178 265.879, 640.449 274.921, 644.720 283.963, 648.991 284.832, 649.402 286.775, 650.319 286.775, 640.319 286.775, 630.319 286.775, 620.319 286.775, 610.319 286.775, 609.213 284.832, 608.295 275.790, 604.024 266.748, 599.753 257.706, 595.482 248.664, 591.210 239.622, 586.939 230.581, 582.668 221.539, 578.397 212.497, 574.125 203.455, 569.854 194.413, 565.583 185.371, 561.312 176.329, 557.041 167.287, 552.769 158.245, 548.498 149.203, 544.227 140.161, 539.956 131.119, 535.685 122.077, 531.413 113.035, 527.142 103.993, 522.871 94.951, 518.600 87.812, 515.227 " />
            <path fill="none" stroke-width="3.0" stroke-linecap="butt" stroke-opacity="1.0" stroke="rgb(0, 0, 0)" stroke-linejoin="miter" d=" M 535.733, 538.958 535.733, 538.958 526.691, 534.687 517.649, 530.416 508.607, 526.145 499.565, 521.874 497.353, 520.829 488.132, 524.699 478.911, 528.569 469.691, 532.439 460.470, 536.309 451.249, 540.179 442.028, 544.049 432.808, 547.919 423.587, 551.790 414.366, 555.660 405.145, 559.530 395.925, 563.400 386.704, 567.270 377.483, 571.140 368.262, 575.010 359.042, 578.881 349.821, 582.751 340.600, 586.621 331.380, 590.491 324.586, 593.343 322.643, 594.158 313.423, 598.028 304.202, 601.898 294.981, 605.768 286.775, 609.213 286.775, 619.213 286.775, 629.213 286.775, 639.213 286.775, 648.587 286.775, 650.319 295.816, 654.591 304.858, 658.862 313.900, 663.133 322.942, 667.404 325.155, 668.449 334.196, 672.720 343.238, 676.992 352.280, 681.263 361.322, 685.534 370.364, 689.805 379.406, 694.076 388.448, 698.348 397.490, 702.619 399.479, 703.558 408.521, 707.829 417.563, 712.101 426.605, 716.372 435.647, 720.643 444.689, 724.914 453.730, 729.186 462.772, 733.457 471.814, 737.728 475.055, 739.259 484.276, 735.389 493.496, 731.518 502.717, 727.648 511.938, 723.778 521.159, 719.908 530.379, 716.038 539.600, 712.168 548.821, 708.298 558.042, 704.427 567.262, 700.557 576.483, 696.687 585.704, 692.817 594.925, 688.947 604.145, 685.077 613.366, 681.207 622.587, 677.337 631.807, 673.466 641.028, 669.596 650.249, 665.726 659.470, 661.856 668.690, 657.986 677.911, 654.116 685.633, 650.875 685.633, 640.875 685.633, 630.875 685.633, 620.875 685.633, 620.104 685.633, 610.104 685.633, 609.768 677.056, 605.716 668.014, 601.445 658.972, 597.174 656.136, 595.834 647.094, 591.563 642.564, 589.423 633.522, 585.152 624.480, 580.881 615.438, 576.609 610.057, 574.068 610.057, 574.068 601.015, 569.796 591.973, 565.525 582.931, 561.254 581.812, 560.725 581.811, 560.725 572.769, 556.454 563.728, 552.182 554.686, 547.911 545.644, 543.640 536.602, 539.369 535.733, 538.958 " />
            <path fill="none" stroke-width="3.0" stroke-linecap="butt" stroke-opacity="1.0" stroke="rgb(0, 0, 0)" stroke-linejoin="miter" d=" M 475.055, 739.259 475.055, 729.259 475.055, 719.259 475.055, 709.259 475.055, 699.259 475.055, 698.152 " />
            <path fill="none" stroke-width="3.0" stroke-linecap="butt" stroke-opacity="1.0" stroke="rgb(0, 0, 0)" stroke-linejoin="miter" d=" M 286.775, 609.213 295.816, 613.484 304.858, 617.755 313.900, 622.026 322.942, 626.297 325.155, 627.342 332.853, 630.979 341.895, 635.250 350.937, 639.522 359.979, 643.793 369.021, 648.064 378.063, 652.335 387.105, 656.606 396.147, 660.878 399.479, 662.452 408.521, 666.723 417.563, 670.994 426.605, 675.265 435.647, 679.536 444.689, 683.808 453.730, 688.079 462.772, 692.350 471.814, 696.621 475.055, 698.152 484.276, 694.282 493.496, 690.412 502.717, 686.542 511.938, 682.672 521.159, 678.801 530.379, 674.931 539.600, 671.061 548.821, 667.191 558.042, 663.321 567.262, 659.451 576.483, 655.581 585.704, 651.710 594.925, 647.840 604.145, 643.970 613.366, 640.100 622.587, 636.230 631.807, 632.360 641.028, 628.490 650.249, 624.619 659.470, 620.749 668.690, 616.879 677.911, 613.009 685.633, 609.768 " />
            <path fill="none" stroke-width="3.0" stroke-linecap="butt" stroke-opacity="1.0" stroke="rgb(0, 0, 0)" stroke-linejoin="miter" d=" M 408.445, 1033.215 399.403, 1028.944 390.361, 1024.673 381.319, 1020.402 372.277, 1016.130 363.235, 1011.859 354.193, 1007.588 345.151, 1003.317 336.109, 999.046 329.515, 995.931 320.473, 991.659 311.431, 987.388 302.389, 983.117 293.347, 978.846 284.305, 974.575 275.263, 970.303 266.221, 966.032 257.179, 961.761 248.137, 957.490 239.095, 953.218 230.053, 948.947 221.011, 944.676 211.969, 940.405 202.927, 936.134 193.885, 931.862 184.844, 927.591 175.802, 923.320 166.760, 919.049 157.718, 914.778 148.676, 910.506 139.634, 906.235 130.592, 901.964 121.550, 897.693 112.508, 893.422 103.466, 889.150 94.424, 884.879 85.382, 880.608 76.340, 876.337 67.298, 872.065 58.256, 867.794 49.214, 863.523 40.172, 859.252 31.130, 854.981 21.125, 850.254 " />
            <path fill="none" stroke-width="3.0" stroke-linecap="butt" stroke-opacity="1.0" stroke="rgb(0, 0, 0)" stroke-linejoin="miter" d=" M 171.134, 787.292 161.914, 791.162 152.693, 795.032 143.472, 798.902 134.251, 802.773 125.056, 806.632 115.835, 810.502 106.614, 814.372 97.393, 818.243 88.173, 822.113 78.952, 825.983 69.731, 829.853 60.510, 833.723 51.290, 837.593 42.069, 841.463 32.848, 845.333 23.628, 849.204 21.125, 850.254 21.125, 860.254 21.125, 870.254 21.125, 880.254 21.125, 890.254 21.125, 891.361 30.167, 895.632 39.209, 899.903 48.251, 904.174 57.292, 908.446 66.334, 912.717 75.376, 916.988 84.418, 921.259 93.460, 925.530 102.502, 929.802 111.544, 934.073 120.586, 938.344 129.628, 942.615 138.670, 946.887 147.712, 951.158 156.754, 955.429 165.796, 959.700 174.838, 963.971 183.880, 968.243 192.922, 972.514 201.964, 976.785 211.006, 981.056 220.047, 985.327 229.089, 989.599 238.131, 993.870 247.173, 998.141 256.215, 1002.412 265.257, 1006.683 274.299, 1010.955 283.341, 1015.226 292.383, 1019.497 301.425, 1023.768 310.467, 1028.040 319.509, 1032.311 329.515, 1037.037 338.557, 1041.308 347.599, 1045.580 356.640, 1049.851 365.682, 1054.122 374.724, 1058.393 383.766, 1062.664 392.808, 1066.936 401.850, 1071.207 408.445, 1074.322 417.665, 1070.452 426.886, 1066.582 436.107, 1062.712 445.328, 1058.841 454.548, 1054.971 463.769, 1051.101 472.990, 1047.231 482.211, 1043.361 491.431, 1039.491 500.652, 1035.621 509.873, 1031.750 519.094, 1027.880 528.314, 1024.010 537.535, 1020.140 546.756, 1016.270 555.977, 1012.400 565.197, 1008.530 574.418, 1004.660 583.639, 1000.789 592.859, 996.919 602.080, 993.049 611.301, 989.179 620.522, 985.309 629.742, 981.439 638.963, 977.569 648.184, 973.698 657.405, 969.828 666.625, 965.958 675.846, 962.088 686.250, 957.721 686.250, 947.721 686.250, 937.721 686.250, 927.721 686.250, 917.721 686.250, 916.614 677.208, 912.343 668.167, 908.072 659.125, 903.801 653.399, 901.096 644.357, 896.825 635.315, 892.554 626.273, 888.283 617.231, 884.011 608.189, 879.740 607.320, 879.330 " />
            <path fill="none" stroke-width="3.0" stroke-linecap="butt" stroke-opacity="1.0" stroke="rgb(0, 0, 0)" stroke-linejoin="miter" d=" M 408.445, 1074.322 408.445, 1064.322 408.445, 1054.322 408.445, 1044.322 408.445, 1034.322 408.445, 1033.215 417.665, 1029.345 426.886, 1025.475 436.107, 1021.605 445.328, 1017.735 454.548, 1013.865 463.769, 1009.995 472.990, 1006.124 482.211, 1002.254 491.431, 998.384 500.652, 994.514 509.873, 990.644 519.094, 986.774 528.314, 982.904 537.535, 979.033 546.756, 975.163 555.977, 971.293 565.197, 967.423 574.418, 963.553 583.639, 959.683 592.859, 955.813 602.080, 951.942 611.301, 948.072 620.522, 944.202 629.742, 940.332 638.963, 936.462 648.184, 932.592 657.405, 928.722 666.625, 924.852 675.846, 920.981 686.250, 916.614 " />
            <path fill="none" stroke-width="3.0" stroke-linecap="butt" stroke-opacity="1.0" stroke="rgb(0, 0, 0)" stroke-linejoin="miter" d=" M 653.399, 901.096 662.620, 897.226 671.841, 893.356 681.061, 889.486 690.282, 885.616 699.503, 881.746 708.724, 877.875 717.944, 874.005 727.165, 870.135 736.386, 866.265 745.606, 862.395 754.827, 858.525 764.048, 854.655 773.269, 850.784 778.187, 848.720 787.229, 852.991 796.271, 857.263 805.313, 861.534 814.355, 865.805 823.397, 870.076 832.439, 874.347 841.480, 878.619 850.522, 882.890 857.117, 886.005 866.338, 882.135 875.558, 878.265 884.779, 874.395 894.000, 870.524 903.221, 866.654 912.441, 862.784 921.662, 858.914 930.883, 855.044 940.104, 851.174 949.324, 847.304 958.545, 843.433 967.766, 839.563 976.987, 835.693 986.207, 831.823 995.428, 827.953 1004.649, 824.083 1013.870, 820.213 1023.090, 816.342 1032.311, 812.472 1041.532, 808.602 1050.752, 804.732 1059.973, 800.862 1064.376, 799.014 1064.376, 789.014 1064.376, 779.014 1064.376, 769.014 1064.376, 759.014 1064.376, 757.907 1055.334, 753.636 1046.292, 749.365 1037.250, 745.094 1028.208, 740.822 1019.166, 736.551 1010.125, 732.280 1001.083, 728.009 992.041, 723.738 985.446, 720.622 976.404, 716.351 967.362, 712.080 958.320, 707.809 949.278, 703.538 940.236, 699.266 931.194, 694.995 922.153, 690.724 913.111, 686.453 904.069, 682.182 895.027, 677.910 885.985, 673.639 876.943, 669.368 867.901, 665.097 858.859, 660.826 849.817, 656.554 840.775, 652.283 831.733, 648.012 822.691, 643.741 813.649, 639.469 804.607, 635.198 795.565, 630.927 786.523, 626.656 777.481, 622.385 768.439, 618.113 759.398, 613.842 750.356, 609.571 741.314, 605.300 732.272, 601.029 723.230, 596.757 714.188, 592.486 705.146, 588.215 696.104, 583.944 690.628, 581.357 " />
            <path fill="none" stroke-width="3.0" stroke-linecap="butt" stroke-opacity="1.0" stroke="rgb(0, 0, 0)" stroke-linejoin="miter" d=" M 778.187, 807.614 768.966, 811.484 759.745, 815.354 750.525, 819.224 741.304, 823.094 732.083, 826.964 722.862, 830.834 713.642, 834.704 704.421, 838.575 695.200, 842.445 685.979, 846.315 676.759, 850.185 667.538, 854.055 658.317, 857.925 649.096, 861.795 639.876, 865.666 630.655, 869.536 621.434, 873.406 612.214, 877.276 607.320, 879.330 " />
            <path fill="none" stroke-width="3.0" stroke-linecap="butt" stroke-opacity="1.0" stroke="rgb(0, 0, 0)" stroke-linejoin="miter" d=" M 857.117, 886.005 857.117, 876.005 857.117, 866.005 857.117, 856.005 857.117, 846.005 857.117, 844.898 " />
            <path fill="none" stroke-width="3.0" stroke-linecap="butt" stroke-opacity="1.0" stroke="rgb(0, 0, 0)" stroke-linejoin="miter" d=" M 778.187, 848.720 778.187, 838.720 778.187, 828.720 778.187, 818.720 778.187, 808.720 778.187, 807.614 787.229, 811.885 796.271, 816.156 805.313, 820.427 814.355, 824.698 823.397, 828.970 832.439, 833.241 841.480, 837.512 850.522, 841.783 857.117, 844.898 866.338, 841.028 875.558, 837.158 884.779, 833.288 894.000, 829.418 903.221, 825.548 912.441, 821.677 921.662, 817.807 930.883, 813.937 940.104, 810.067 949.324, 806.197 958.545, 802.327 967.766, 798.457 976.987, 794.586 986.207, 790.716 995.428, 786.846 1004.649, 782.976 1013.870, 779.106 1023.090, 775.236 1032.311, 771.366 1041.532, 767.496 1050.752, 763.625 1059.973, 759.755 1064.376, 757.907 " />
            <path fill="none" stroke-width="3.0" stroke-linecap="butt" stroke-opacity="1.0" stroke="rgb(0, 0, 0)" stroke-linejoin="miter" d=" M 238.754, 627.635 229.533, 631.505 220.312, 635.376 211.091, 639.246 201.871, 643.116 192.650, 646.986 183.429, 650.856 174.208, 654.726 164.988, 658.596 155.767, 662.467 146.546, 666.337 137.325, 670.207 128.105, 674.077 118.884, 677.947 109.663, 681.817 100.442, 685.687 91.222, 689.557 82.001, 693.428 72.780, 697.298 63.560, 701.168 54.339, 705.038 45.118, 708.908 35.897, 712.778 26.677, 716.648 23.981, 717.780 23.981, 727.780 23.981, 737.780 23.981, 747.780 23.981, 757.780 23.981, 758.887 33.023, 763.158 42.065, 767.429 51.107, 771.700 60.148, 775.971 69.190, 780.243 78.232, 784.514 87.274, 788.785 96.316, 793.056 105.358, 797.327 114.400, 801.599 123.442, 805.870 125.056, 806.632 " />
            <path fill="none" stroke-width="3.0" stroke-linecap="butt" stroke-opacity="1.0" stroke="rgb(0, 0, 0)" stroke-linejoin="miter" d=" M 171.134, 787.292 162.092, 783.021 153.050, 778.750 144.008, 774.478 134.967, 770.207 125.925, 765.936 116.883, 761.665 107.841, 757.393 98.799, 753.122 89.757, 748.851 80.715, 744.580 71.673, 740.309 62.631, 736.037 53.589, 731.766 44.547, 727.495 35.505, 723.224 26.463, 718.953 23.981, 717.780 " />
            <path fill="none" stroke-width="3.0" stroke-linecap="butt" stroke-opacity="1.0" stroke="rgb(0, 0, 0)" stroke-linejoin="miter" d=" M 573.688, 523.028 564.468, 526.898 555.247, 530.768 546.026, 534.638 536.805, 538.508 535.733, 538.958 " />
            <path fill="none" stroke-width="3.0" stroke-linecap="butt" stroke-opacity="1.0" stroke="rgb(0, 0, 0)" stroke-linejoin="miter" d=" M 619.767, 503.688 610.546, 507.558 601.325, 511.428 592.105, 515.298 582.884, 519.168 573.688, 523.028 " />
            <path fill="none" stroke-width="3.0" stroke-linecap="butt" stroke-opacity="1.0" stroke="rgb(0, 0, 0)" stroke-linejoin="miter" d=" M 750.928, 489.743 741.886, 485.472 732.844, 481.201 723.802, 476.930 714.760, 472.658 705.718, 468.387 704.849, 467.977 " />
        </g>
    </g>
</svg>
