<?xml version='1.0' encoding='ascii'?>
<svg xmlns="http://www.w3.org/2000/svg" xmlns:inkscape="http://www.inkscape.org/namespaces/inkscape" version="1.1" width="1080" height="1080">
    <g id="ViewLayer_LineSet" inkscape:groupmode="lineset" inkscape:label="ViewLayer_LineSet">
        <g xmlns:inkscape="http://www.inkscape.org/namespaces/inkscape" inkscape:groupmode="layer" inkscape:label="fills" id="fills">
            <path fill_rule="evenodd" stroke="none" fill-opacity="1.0" fill="rgb(204, 204, 204)" d=" M 21.125, 891.361 329.515, 1037.037 408.445, 1074.322 686.250, 957.721 686.250, 916.614 653.399, 901.096 778.187, 848.720 857.117, 886.005 1064.376, 799.014 1064.376, 757.907 985.446, 720.622 677.056, 574.946 469.797, 661.937 322.643, 592.425 23.981, 717.780 23.981, 758.887 125.056, 806.632 21.125, 850.254 21.125, 891.361  z" />
        </g>
        <g inkscape:groupmode="layer" id="strokes" inkscape:label="strokes">
            <path fill="none" stroke-width="3.0" stroke-linecap="butt" stroke-opacity="1.0" stroke="rgb(0, 0, 0)" stroke-linejoin="miter" d=" M 408.445, 1033.215 399.403, 1028.944 390.361, 1024.673 381.319, 1020.402 372.277, 1016.130 363.235, 1011.859 354.193, 1007.588 345.151, 1003.317 336.109, 999.046 329.515, 995.931 320.473, 991.659 311.431, 987.388 302.389, 983.117 293.347, 978.846 284.305, 974.575 275.263, 970.303 266.221, 966.032 257.179, 961.761 248.137, 957.490 239.095, 953.218 230.053, 948.947 221.011, 944.676 211.969, 940.405 202.927, 936.134 193.885, 931.862 184.844, 927.591 175.802, 923.320 166.760, 919.049 157.718, 914.778 148.676, 910.506 139.634, 906.235 130.592, 901.964 121.550, 897.693 112.508, 893.422 103.466, 889.150 94.424, 884.879 85.382, 880.608 76.340, 876.337 67.298, 872.065 58.256, 867.794 49.214, 863.523 40.172, 859.252 31.130, 854.981 21.125, 850.254 " />
            <path fill="none" stroke-width="3.0" stroke-linecap="butt" stroke-opacity="1.0" stroke="rgb(0, 0, 0)" stroke-linejoin="miter" d=" M 171.134, 787.292 161.914, 791.162 152.693, 795.032 143.472, 798.902 134.251, 802.773 125.056, 806.632 115.835, 810.502 106.614, 814.372 97.393, 818.243 88.173, 822.113 78.952, 825.983 69.731, 829.853 60.510, 833.723 51.290, 837.593 42.069, 841.463 32.848, 845.333 23.628, 849.204 21.125, 850.254 21.125, 860.254 21.125, 870.254 21.125, 880.254 21.125, 890.254 21.125, 891.361 30.167, 895.632 39.209, 899.903 48.251, 904.174 57.292, 908.446 66.334, 912.717 75.376, 916.988 84.418, 921.259 93.460, 925.530 102.502, 929.802 111.544, 934.073 120.586, 938.344 129.628, 942.615 138.670, 946.887 147.712, 951.158 156.754, 955.429 165.796, 959.700 174.838, 963.971 183.880, 968.243 192.922, 972.514 201.964, 976.785 211.006, 981.056 220.047, 985.327 229.089, 989.599 238.131, 993.870 247.173, 998.141 256.215, 1002.412 265.257, 1006.683 274.299, 1010.955 283.341, 1015.226 292.383, 1019.497 301.425, 1023.768 310.467, 1028.040 319.509, 1032.311 329.515, 1037.037 338.557, 1041.308 347.599, 1045.580 356.640, 1049.851 365.682, 1054.122 374.724, 1058.393 383.766, 1062.664 392.808, 1066.936 401.850, 1071.207 408.445, 1074.322 417.665, 1070.452 426.886, 1066.582 436.107, 1062.712 445.328, 1058.841 454.548, 1054.971 463.769, 1051.101 472.990, 1047.231 482.211, 1043.361 491.431, 1039.491 500.652, 1035.621 509.873, 1031.750 519.094, 1027.880 528.314, 1024.010 537.535, 1020.140 546.756, 1016.270 555.977, 1012.400 565.197, 1008.530 574.418, 1004.660 583.639, 1000.789 592.859, 996.919 602.080, 993.049 611.301, 989.179 620.522, 985.309 629.742, 981.439 638.963, 977.569 648.184, 973.698 657.405, 969.828 666.625, 965.958 675.846, 962.088 686.250, 957.721 686.250, 947.721 686.250, 937.721 686.250, 927.721 686.250, 917.721 686.250, 916.614 677.208, 912.343 668.167, 908.072 659.125, 903.801 653.399, 901.096 644.357, 896.825 635.315, 892.554 626.273, 888.283 617.231, 884.011 608.189, 879.740 607.320, 879.330 " />
            <path fill="none" stroke-width="3.0" stroke-linecap="butt" stroke-opacity="1.0" stroke="rgb(0, 0, 0)" stroke-linejoin="miter" d=" M 653.399, 901.096 662.620, 897.226 671.841, 893.356 681.061, 889.486 690.282, 885.616 699.503, 881.746 708.724, 877.875 717.944, 874.005 727.165, 870.135 736.386, 866.265 745.606, 862.395 754.827, 858.525 764.048, 854.655 773.269, 850.784 778.187, 848.720 787.229, 852.991 796.271, 857.263 805.313, 861.534 814.355, 865.805 823.397, 870.076 832.439, 874.347 841.480, 878.619 850.522, 882.890 857.117, 886.005 866.338, 882.135 875.558, 878.265 884.779, 874.395 894.000, 870.524 903.221, 866.654 912.441, 862.784 921.662, 858.914 930.883, 855.044 940.104, 851.174 949.324, 847.304 958.545, 843.433 967.766, 839.563 976.987, 835.693 986.207, 831.823 995.428, 827.953 1004.649, 824.083 1013.870, 820.213 1023.090, 816.342 1032.311, 812.472 1041.532, 808.602 1050.752, 804.732 1059.973, 800.862 1064.376, 799.014 1064.376, 789.014 1064.376, 779.014 1064.376, 769.014 1064.376, 759.014 1064.376, 757.907 1055.334, 753.636 1046.292, 749.365 1037.250, 745.094 1028.208, 740.822 1019.166, 736.551 1010.125, 732.280 1001.083, 728.009 992.041, 723.738 985.446, 720.622 976.404, 716.351 967.362, 712.080 958.320, 707.809 949.278, 703.538 940.236, 699.266 931.194, 694.995 922.153, 690.724 913.111, 686.453 904.069, 682.182 895.027, 677.910 885.985, 673.639 876.943, 669.368 867.901, 665.097 858.859, 660.826 849.817, 656.554 840.775, 652.283 831.733, 648.012 822.691, 643.741 813.649, 639.469 804.607, 635.198 795.565, 630.927 786.523, 626.656 777.481, 622.385 768.439, 618.113 759.398, 613.842 750.356, 609.571 741.314, 605.300 732.272, 601.029 723.230, 596.757 714.188, 592.486 705.146, 588.215 696.104, 583.944 687.062, 579.673 677.056, 574.946 667.836, 578.816 658.615, 582.686 649.394, 586.556 640.173, 590.427 630.953, 594.297 621.732, 598.167 612.511, 602.037 603.290, 605.907 594.070, 609.777 584.849, 613.647 575.628, 617.518 566.407, 621.388 557.187, 625.258 547.966, 629.128 538.745, 632.998 529.524, 636.868 520.304, 640.738 511.083, 644.608 501.862, 648.479 492.641, 652.349 483.421, 656.219 474.200, 660.089 469.797, 661.937 460.755, 657.666 451.713, 653.395 442.671, 649.123 433.629, 644.852 424.587, 640.581 415.545, 636.310 406.503, 632.039 397.461, 627.767 388.419, 623.496 379.378, 619.225 370.336, 614.954 361.294, 610.683 352.252, 606.411 343.210, 602.140 334.168, 597.869 325.126, 593.598 322.643, 592.425 313.423, 596.295 304.202, 600.165 294.981, 604.035 285.760, 607.906 276.540, 611.776 267.319, 615.646 258.098, 619.516 248.877, 623.386 239.657, 627.256 230.436, 631.126 221.215, 634.997 211.994, 638.867 202.774, 642.737 193.553, 646.607 184.332, 650.477 175.112, 654.347 165.891, 658.217 156.670, 662.087 147.449, 665.958 138.229, 669.828 129.008, 673.698 119.787, 677.568 110.566, 681.438 101.346, 685.308 92.125, 689.178 82.904, 693.049 73.683, 696.919 64.463, 700.789 55.242, 704.659 46.021, 708.529 36.800, 712.399 27.580, 716.269 23.981, 717.780 23.981, 727.780 23.981, 737.780 23.981, 747.780 23.981, 757.780 23.981, 758.887 33.023, 763.158 42.065, 767.429 51.107, 771.700 60.148, 775.971 69.190, 780.243 78.232, 784.514 87.274, 788.785 96.316, 793.056 105.358, 797.327 114.400, 801.599 123.442, 805.870 125.056, 806.632 " />
            <path fill="none" stroke-width="3.0" stroke-linecap="butt" stroke-opacity="1.0" stroke="rgb(0, 0, 0)" stroke-linejoin="miter" d=" M 408.445, 1074.322 408.445, 1064.322 408.445, 1054.322 408.445, 1044.322 408.445, 1034.322 408.445, 1033.215 417.665, 1029.345 426.886, 1025.475 436.107, 1021.605 445.328, 1017.735 454.548, 1013.865 463.769, 1009.995 472.990, 1006.124 482.211, 1002.254 491.431, 998.384 500.652, 994.514 509.873, 990.644 519.094, 986.774 528.314, 982.904 537.535, 979.033 546.756, 975.163 555.977, 971.293 565.197, 967.423 574.418, 963.553 583.639, 959.683 592.859, 955.813 602.080, 951.942 611.301, 948.072 620.522, 944.202 629.742, 940.332 638.963, 936.462 648.184, 932.592 657.405, 928.722 666.625, 924.852 675.846, 920.981 686.250, 916.614 " />
            <path fill="none" stroke-width="3.0" stroke-linecap="butt" stroke-opacity="1.0" stroke="rgb(0, 0, 0)" stroke-linejoin="miter" d=" M 778.187, 807.614 768.966, 811.484 759.745, 815.354 750.525, 819.224 741.304, 823.094 732.083, 826.964 722.862, 830.834 713.642, 834.704 704.421, 838.575 695.200, 842.445 685.979, 846.315 676.759, 850.185 667.538, 854.055 658.317, 857.925 649.096, 861.795 639.876, 865.666 630.655, 869.536 621.434, 873.406 612.214, 877.276 607.320, 879.330 " />
            <path fill="none" stroke-width="3.0" stroke-linecap="butt" stroke-opacity="1.0" stroke="rgb(0, 0, 0)" stroke-linejoin="miter" d=" M 857.117, 886.005 857.117, 876.005 857.117, 866.005 857.117, 856.005 857.117, 846.005 857.117, 844.898 " />
            <path fill="none" stroke-width="3.0" stroke-linecap="butt" stroke-opacity="1.0" stroke="rgb(0, 0, 0)" stroke-linejoin="miter" d=" M 778.187, 848.720 778.187, 838.720 778.187, 828.720 778.187, 818.720 778.187, 808.720 778.187, 807.614 787.229, 811.885 796.271, 816.156 805.313, 820.427 814.355, 824.698 823.397, 828.970 832.439, 833.241 841.480, 837.512 850.522, 841.783 857.117, 844.898 866.338, 841.028 875.558, 837.158 884.779, 833.288 894.000, 829.418 903.221, 825.548 912.441, 821.677 921.662, 817.807 930.883, 813.937 940.104, 810.067 949.324, 806.197 958.545, 802.327 967.766, 798.457 976.987, 794.586 986.207, 790.716 995.428, 786.846 1004.649, 782.976 1013.870, 779.106 1023.090, 775.236 1032.311, 771.366 1041.532, 767.496 1050.752, 763.625 1059.973, 759.755 1064.376, 757.907 " />
            <path fill="none" stroke-width="3.0" stroke-linecap="butt" stroke-opacity="1.0" stroke="rgb(0, 0, 0)" stroke-linejoin="miter" d=" M 171.134, 787.292 162.092, 783.021 153.050, 778.750 144.008, 774.478 134.967, 770.207 125.925, 765.936 116.883, 761.665 107.841, 757.393 98.799, 753.122 89.757, 748.851 80.715, 744.580 71.673, 740.309 62.631, 736.037 53.589, 731.766 44.547, 727.495 35.505, 723.224 26.463, 718.953 23.981, 717.780 " />
        </g>
    </g>
</svg>
