<?xml version='1.0' encoding='ascii'?>
<svg xmlns="http://www.w3.org/2000/svg" xmlns:inkscape="http://www.inkscape.org/namespaces/inkscape" version="1.1" width="1080" height="1080">
    <g id="ViewLayer_LineSet" inkscape:groupmode="lineset" inkscape:label="ViewLayer_LineSet">
        <g xmlns:inkscape="http://www.inkscape.org/namespaces/inkscape" inkscape:groupmode="layer" inkscape:label="fills" id="fills">
            <path fill_rule="evenodd" stroke="none" fill-opacity="1.0" fill="rgb(204, 204, 204)" d=" M 704.849, 467.977 535.733, 538.958 535.733, 580.065 610.057, 615.174 694.091, 579.904 779.174, 544.193 779.174, 503.086 704.849, 467.977  z" />
        </g>
        <g inkscape:groupmode="layer" id="strokes" inkscape:label="strokes">
            <path fill="none" stroke-width="3.0" stroke-linecap="butt" stroke-opacity="1.0" stroke="rgb(0, 0, 0)" stroke-linejoin="miter" d=" M 779.174, 503.086 769.953, 506.956 760.732, 510.826 751.511, 514.696 742.291, 518.567 733.070, 522.437 723.849, 526.307 714.628, 530.177 705.408, 534.047 696.187, 537.917 694.091, 538.797 684.870, 542.667 675.650, 546.537 666.429, 550.407 657.208, 554.277 647.987, 558.148 638.767, 562.018 629.546, 565.888 620.325, 569.758 611.104, 573.628 610.057, 574.068 " />
            <path fill="none" stroke-width="3.0" stroke-linecap="butt" stroke-opacity="1.0" stroke="rgb(0, 0, 0)" stroke-linejoin="miter" d=" M 610.057, 615.174 610.057, 605.174 610.057, 595.174 610.057, 585.174 610.057, 575.174 610.057, 574.068 601.015, 569.796 591.973, 565.525 582.931, 561.254 573.889, 556.983 564.847, 552.712 555.805, 548.440 546.764, 544.169 537.722, 539.898 535.733, 538.958 " />
            <path fill="none" stroke-width="3.0" stroke-linecap="butt" stroke-opacity="1.0" stroke="rgb(0, 0, 0)" stroke-linejoin="miter" d=" M 704.849, 467.977 695.629, 471.847 686.408, 475.717 677.187, 479.587 667.966, 483.457 658.746, 487.328 649.525, 491.198 640.304, 495.068 631.083, 498.938 621.863, 502.808 612.642, 506.678 603.421, 510.548 594.200, 514.418 584.980, 518.289 575.759, 522.159 566.538, 526.029 557.317, 529.899 548.097, 533.769 538.876, 537.639 535.733, 538.958 535.733, 548.958 535.733, 558.958 535.733, 568.959 535.733, 578.959 535.733, 580.065 544.775, 584.336 553.817, 588.608 562.859, 592.879 571.901, 597.150 580.943, 601.421 589.984, 605.692 599.026, 609.964 608.068, 614.235 610.057, 615.174 619.278, 611.304 628.499, 607.434 637.719, 603.564 646.940, 599.694 656.161, 595.824 665.382, 591.954 674.602, 588.083 683.823, 584.213 693.044, 580.343 694.091, 579.904 703.312, 576.033 712.533, 572.163 721.753, 568.293 730.974, 564.423 740.195, 560.553 749.416, 556.683 758.636, 552.813 767.857, 548.942 777.078, 545.072 779.174, 544.193 779.174, 534.193 779.174, 524.193 779.174, 514.193 779.174, 504.193 779.174, 503.086 770.132, 498.815 761.090, 494.544 752.048, 490.272 743.006, 486.001 733.964, 481.730 724.922, 477.459 715.880, 473.188 706.838, 468.916 704.849, 467.977 " />
        </g>
    </g>
</svg>
