<?xml version='1.0' encoding='ascii'?>
<svg xmlns="http://www.w3.org/2000/svg" xmlns:inkscape="http://www.inkscape.org/namespaces/inkscape" version="1.1" width="1080" height="1080">
    <g id="ViewLayer_LineSet" inkscape:groupmode="lineset" inkscape:label="ViewLayer_LineSet">
        <g xmlns:inkscape="http://www.inkscape.org/namespaces/inkscape" inkscape:groupmode="layer" inkscape:label="fills" id="fills">
            <path fill_rule="evenodd" stroke="none" fill-opacity="1.0" fill="rgb(204, 204, 204)" d=" M 382.424, 432.679 581.387, 526.664 619.767, 544.794 704.849, 509.083 914.379, 421.139 914.379, 380.033 875.999, 361.903 677.036, 267.917 467.506, 355.861 382.424, 391.572 382.424, 432.679  z" />
        </g>
        <g inkscape:groupmode="layer" id="strokes" inkscape:label="strokes">
            <path fill="none" stroke-width="3.0" stroke-linecap="butt" stroke-opacity="1.0" stroke="rgb(0, 0, 0)" stroke-linejoin="miter" d=" M 382.424, 432.679 391.466, 436.950 400.508, 441.221 409.550, 445.492 418.592, 449.764 427.634, 454.035 436.676, 458.306 445.718, 462.577 454.759, 466.849 463.801, 471.120 472.843, 475.391 481.885, 479.662 490.927, 483.933 499.969, 488.205 509.011, 492.476 518.053, 496.747 527.095, 501.018 536.137, 505.289 545.179, 509.561 554.221, 513.832 563.263, 518.103 572.305, 522.374 581.387, 526.664 590.429, 530.936 599.471, 535.207 608.513, 539.478 617.555, 543.749 619.767, 544.794 628.988, 540.924 638.208, 537.054 647.429, 533.184 656.650, 529.314 665.871, 525.444 675.091, 521.573 684.312, 517.703 693.533, 513.833 702.753, 509.963 704.849, 509.083 714.070, 505.213 723.291, 501.343 732.512, 497.473 741.732, 493.603 750.953, 489.733 760.174, 485.863 769.394, 481.992 778.615, 478.122 787.836, 474.252 797.057, 470.382 806.277, 466.512 815.498, 462.642 824.719, 458.772 833.940, 454.901 843.160, 451.031 852.381, 447.161 861.602, 443.291 870.823, 439.421 880.043, 435.551 889.264, 431.681 898.485, 427.811 907.706, 423.940 914.379, 421.139 914.379, 411.139 914.379, 401.139 914.379, 391.139 914.379, 381.139 914.379, 380.033 905.337, 375.761 896.295, 371.490 887.253, 367.219 878.211, 362.948 875.999, 361.903 866.957, 357.632 857.915, 353.360 848.873, 349.089 839.831, 344.818 830.789, 340.547 821.747, 336.276 812.706, 332.004 803.664, 327.733 794.622, 323.462 785.580, 319.191 776.538, 314.920 767.496, 310.648 758.454, 306.377 749.412, 302.106 740.370, 297.835 731.328, 293.563 722.286, 289.292 713.244, 285.021 704.202, 280.750 695.160, 276.479 686.118, 272.207 677.036, 267.917 667.816, 271.787 658.595, 275.658 649.374, 279.528 640.153, 283.398 630.933, 287.268 621.712, 291.138 612.491, 295.008 603.270, 298.878 594.050, 302.748 584.829, 306.619 575.608, 310.489 566.387, 314.359 557.167, 318.229 547.946, 322.099 538.725, 325.969 529.504, 329.839 520.284, 333.710 511.063, 337.580 501.842, 341.450 492.621, 345.320 483.401, 349.190 474.180, 353.060 467.506, 355.861 458.286, 359.731 449.065, 363.602 439.844, 367.472 430.623, 371.342 421.403, 375.212 412.182, 379.082 402.961, 382.952 393.741, 386.822 384.520, 390.693 382.424, 391.572 382.424, 401.572 382.424, 411.572 382.424, 421.572 382.424, 431.572 382.424, 432.679 " />
            <path fill="none" stroke-width="3.0" stroke-linecap="butt" stroke-opacity="1.0" stroke="rgb(0, 0, 0)" stroke-linejoin="miter" d=" M 914.379, 380.033 905.158, 383.903 895.938, 387.773 886.717, 391.643 877.496, 395.513 868.275, 399.383 859.055, 403.253 849.834, 407.124 840.613, 410.994 831.393, 414.864 822.172, 418.734 812.951, 422.604 803.730, 426.474 794.510, 430.344 785.289, 434.215 776.068, 438.085 766.847, 441.955 757.627, 445.825 748.406, 449.695 739.185, 453.565 729.964, 457.435 720.744, 461.306 711.523, 465.176 704.849, 467.977 695.629, 471.847 686.408, 475.717 677.187, 479.587 667.966, 483.457 658.746, 487.327 649.525, 491.198 640.304, 495.068 631.083, 498.938 621.863, 502.808 619.767, 503.688 " />
            <path fill="none" stroke-width="3.0" stroke-linecap="butt" stroke-opacity="1.0" stroke="rgb(0, 0, 0)" stroke-linejoin="miter" d=" M 619.767, 544.794 619.767, 534.794 619.767, 524.794 619.767, 514.794 619.767, 504.794 619.767, 503.688 610.725, 499.416 601.683, 495.145 592.641, 490.874 583.599, 486.603 574.557, 482.332 565.515, 478.060 556.473, 473.789 547.431, 469.518 538.389, 465.247 529.347, 460.975 520.305, 456.704 511.263, 452.433 502.222, 448.162 493.180, 443.891 484.138, 439.619 475.096, 435.348 466.054, 431.077 457.012, 426.806 447.970, 422.535 438.928, 418.263 429.886, 413.992 420.844, 409.721 411.802, 405.450 402.760, 401.179 393.718, 396.907 382.424, 391.572 " />
        </g>
    </g>
</svg>
