<?xml version='1.0' encoding='ascii'?>
<svg xmlns="http://www.w3.org/2000/svg" xmlns:inkscape="http://www.inkscape.org/namespaces/inkscape" version="1.1" width="1080" height="1080">
    <g id="ViewLayer_LineSet" inkscape:groupmode="lineset" inkscape:label="ViewLayer_LineSet">
        <g xmlns:inkscape="http://www.inkscape.org/namespaces/inkscape" inkscape:groupmode="layer" inkscape:label="fills" id="fills">
            <path fill_rule="evenodd" stroke="none" fill-opacity="1.0" fill="rgb(204, 204, 204)" d=" M 657.865, 10.464 180.492, 210.827 180.492, 251.933 494.226, 400.134 971.599, 199.771 971.599, 158.664 657.865, 10.464  z" />
        </g>
        <g inkscape:groupmode="layer" id="strokes" inkscape:label="strokes">
            <path fill="none" stroke-width="3.0" stroke-linecap="butt" stroke-opacity="1.0" stroke="rgb(0, 0, 0)" stroke-linejoin="miter" d=" M 971.599, 158.664 962.378, 162.534 953.157, 166.404 943.936, 170.274 934.716, 174.145 925.495, 178.015 916.274, 181.885 907.054, 185.755 897.833, 189.625 888.612, 193.495 879.391, 197.365 870.171, 201.236 860.950, 205.106 851.729, 208.976 842.508, 212.846 833.288, 216.716 824.067, 220.586 814.846, 224.456 805.625, 228.327 796.405, 232.197 787.184, 236.067 777.963, 239.937 768.742, 243.807 759.522, 247.677 750.301, 251.547 741.080, 255.417 731.859, 259.288 722.639, 263.158 713.418, 267.028 704.197, 270.898 694.977, 274.768 685.756, 278.638 676.535, 282.508 667.314, 286.379 658.094, 290.249 648.873, 294.119 639.652, 297.989 630.431, 301.859 621.211, 305.729 611.990, 309.599 602.769, 313.469 593.548, 317.340 584.328, 321.210 575.107, 325.080 565.886, 328.950 556.665, 332.820 547.445, 336.690 538.224, 340.560 529.003, 344.431 519.782, 348.301 510.562, 352.171 501.341, 356.041 494.226, 359.027 " />
            <path fill="none" stroke-width="3.0" stroke-linecap="butt" stroke-opacity="1.0" stroke="rgb(0, 0, 0)" stroke-linejoin="miter" d=" M 494.226, 400.134 494.226, 390.134 494.226, 380.134 494.226, 370.134 494.226, 360.134 494.226, 359.027 485.184, 354.756 476.142, 350.485 467.100, 346.214 458.058, 341.943 449.016, 337.671 439.974, 333.400 430.932, 329.129 421.890, 324.858 412.848, 320.586 403.806, 316.315 394.764, 312.044 385.723, 307.773 376.681, 303.502 367.639, 299.230 358.597, 294.959 349.555, 290.688 340.513, 286.417 331.471, 282.146 322.429, 277.874 313.387, 273.603 304.345, 269.332 295.303, 265.061 286.261, 260.789 277.219, 256.518 268.177, 252.247 259.135, 247.976 250.093, 243.705 241.051, 239.433 232.009, 235.162 222.968, 230.891 213.926, 226.620 204.884, 222.349 195.842, 218.077 186.800, 213.806 180.492, 210.827 " />
            <path fill="none" stroke-width="3.0" stroke-linecap="butt" stroke-opacity="1.0" stroke="rgb(0, 0, 0)" stroke-linejoin="miter" d=" M 657.865, 10.464 648.645, 14.334 639.424, 18.204 630.203, 22.074 620.982, 25.944 611.762, 29.814 602.541, 33.684 593.320, 37.554 584.099, 41.425 574.879, 45.295 565.658, 49.165 556.437, 53.035 547.216, 56.905 537.996, 60.775 528.775, 64.645 519.554, 68.516 510.333, 72.386 501.113, 76.256 491.892, 80.126 482.671, 83.996 473.451, 87.866 464.230, 91.736 455.009, 95.606 445.788, 99.477 436.568, 103.347 427.347, 107.217 418.126, 111.087 408.905, 114.957 399.685, 118.827 390.464, 122.697 381.243, 126.568 372.022, 130.438 362.802, 134.308 353.581, 138.178 344.360, 142.048 335.139, 145.918 325.919, 149.788 316.698, 153.659 307.477, 157.529 298.256, 161.399 289.036, 165.269 279.815, 169.139 270.594, 173.009 261.374, 176.879 252.153, 180.749 242.932, 184.620 233.711, 188.490 224.491, 192.360 215.270, 196.230 206.049, 200.100 196.828, 203.970 187.608, 207.840 180.492, 210.827 180.492, 220.827 180.492, 230.827 180.492, 240.827 180.492, 250.827 180.492, 251.933 189.534, 256.205 198.576, 260.476 207.618, 264.747 216.660, 269.018 225.702, 273.289 234.744, 277.561 243.786, 281.832 252.828, 286.103 261.870, 290.374 270.912, 294.646 279.954, 298.917 288.996, 303.188 298.038, 307.459 307.080, 311.730 316.122, 316.002 325.164, 320.273 334.206, 324.544 343.247, 328.815 352.289, 333.086 361.331, 337.358 370.373, 341.629 379.415, 345.900 388.457, 350.171 397.499, 354.442 406.541, 358.714 415.583, 362.985 424.625, 367.256 433.667, 371.527 442.709, 375.799 451.751, 380.070 460.793, 384.341 469.835, 388.612 478.877, 392.883 487.919, 397.155 494.226, 400.134 503.447, 396.264 512.667, 392.394 521.888, 388.524 531.109, 384.653 540.330, 380.783 549.550, 376.913 558.771, 373.043 567.992, 369.173 577.213, 365.303 586.433, 361.433 595.654, 357.562 604.875, 353.692 614.095, 349.822 623.316, 345.952 632.537, 342.082 641.758, 338.212 650.978, 334.342 660.199, 330.472 669.420, 326.601 678.641, 322.731 687.861, 318.861 697.082, 314.991 706.303, 311.121 715.524, 307.251 724.744, 303.381 733.965, 299.510 743.186, 295.640 752.407, 291.770 761.627, 287.900 770.848, 284.030 780.069, 280.160 789.290, 276.290 798.510, 272.420 807.731, 268.549 816.952, 264.679 826.172, 260.809 835.393, 256.939 844.614, 253.069 853.835, 249.199 863.055, 245.329 872.276, 241.458 881.497, 237.588 890.718, 233.718 899.938, 229.848 909.159, 225.978 918.380, 222.108 927.601, 218.238 936.821, 214.367 946.042, 210.497 955.263, 206.627 964.484, 202.757 971.599, 199.771 971.599, 189.771 971.599, 179.771 971.599, 169.771 971.599, 159.771 971.599, 158.664 962.557, 154.393 953.515, 150.122 944.473, 145.850 935.431, 141.579 926.389, 137.308 917.347, 133.037 908.305, 128.766 899.263, 124.494 890.221, 120.223 881.179, 115.952 872.137, 111.681 863.095, 107.410 854.053, 103.138 845.011, 98.867 835.970, 94.596 826.928, 90.325 817.886, 86.053 808.844, 81.782 799.802, 77.511 790.760, 73.240 781.718, 68.969 772.676, 64.697 763.634, 60.426 754.592, 56.155 745.550, 51.884 736.508, 47.613 727.466, 43.341 718.424, 39.070 709.382, 34.799 700.340, 30.528 691.298, 26.256 682.256, 21.985 673.215, 17.714 664.173, 13.443 657.865, 10.464 " />
        </g>
    </g>
</svg>
