<?xml version='1.0' encoding='ascii'?>
<svg xmlns="http://www.w3.org/2000/svg" xmlns:inkscape="http://www.inkscape.org/namespaces/inkscape" version="1.1" width="1080" height="1080">
    <g id="ViewLayer_LineSet" inkscape:groupmode="lineset" inkscape:label="ViewLayer_LineSet">
        <g xmlns:inkscape="http://www.inkscape.org/namespaces/inkscape" inkscape:groupmode="layer" inkscape:label="fills" id="fills">
            <path fill_rule="evenodd" stroke="none" fill-opacity="1.0" fill="rgb(204, 204, 204)" d=" M 1064.280, 491.949 1064.280, 450.842 988.703, 415.142 914.379, 380.033 704.849, 467.977 704.849, 509.083 779.174, 544.193 854.750, 579.893 1064.280, 491.949  z" />
        </g>
        <g inkscape:groupmode="layer" id="strokes" inkscape:label="strokes">
            <path fill="none" stroke-width="3.0" stroke-linecap="butt" stroke-opacity="1.0" stroke="rgb(0, 0, 0)" stroke-linejoin="miter" d=" M 1064.280, 491.949 1064.280, 481.949 1064.280, 471.949 1064.280, 461.949 1064.280, 451.949 1064.280, 450.842 1055.238, 446.571 1046.196, 442.300 1037.154, 438.029 1028.112, 433.757 1019.070, 429.486 1010.028, 425.215 1000.986, 420.944 991.944, 416.673 988.703, 415.142 979.662, 410.871 970.620, 406.599 961.578, 402.328 952.536, 398.057 943.494, 393.786 934.452, 389.515 925.410, 385.243 916.368, 380.972 914.379, 380.033 905.158, 383.903 895.938, 387.773 886.717, 391.643 877.496, 395.513 868.275, 399.383 859.055, 403.253 849.834, 407.124 840.613, 410.994 831.393, 414.864 822.172, 418.734 812.951, 422.604 803.730, 426.474 794.510, 430.344 785.289, 434.215 776.068, 438.085 766.847, 441.955 757.627, 445.825 748.406, 449.695 739.185, 453.565 729.964, 457.435 720.744, 461.306 711.523, 465.176 704.849, 467.977 704.849, 477.977 704.849, 487.977 704.849, 497.977 704.849, 507.977 704.849, 509.083 713.891, 513.355 722.933, 517.626 731.975, 521.897 741.017, 526.168 750.059, 530.439 759.101, 534.711 768.143, 538.982 777.185, 543.253 779.174, 544.193 788.216, 548.464 797.258, 552.735 806.299, 557.006 815.341, 561.277 824.383, 565.549 833.425, 569.820 842.467, 574.091 851.509, 578.362 854.750, 579.893 863.970, 576.023 873.191, 572.153 882.412, 568.283 891.633, 564.412 900.853, 560.542 910.074, 556.672 919.295, 552.802 928.516, 548.932 937.736, 545.062 946.957, 541.192 956.178, 537.321 965.399, 533.451 974.619, 529.581 983.840, 525.711 993.061, 521.841 1002.282, 517.971 1011.502, 514.101 1020.723, 510.231 1029.944, 506.360 1039.165, 502.490 1048.385, 498.620 1057.606, 494.750 1064.280, 491.949 " />
            <path fill="none" stroke-width="3.0" stroke-linecap="butt" stroke-opacity="1.0" stroke="rgb(0, 0, 0)" stroke-linejoin="miter" d=" M 854.750, 579.893 854.750, 569.893 854.750, 559.893 854.750, 549.893 854.750, 539.893 854.750, 538.786 " />
            <path fill="none" stroke-width="3.0" stroke-linecap="butt" stroke-opacity="1.0" stroke="rgb(0, 0, 0)" stroke-linejoin="miter" d=" M 704.849, 467.977 713.891, 472.248 722.933, 476.519 731.975, 480.790 741.017, 485.062 750.059, 489.333 759.101, 493.604 768.143, 497.875 777.185, 502.146 779.174, 503.086 788.216, 507.357 797.258, 511.628 806.299, 515.899 815.341, 520.171 824.383, 524.442 833.425, 528.713 842.467, 532.984 851.509, 537.256 854.750, 538.786 863.970, 534.916 873.191, 531.046 882.412, 527.176 891.633, 523.306 900.853, 519.436 910.074, 515.565 919.295, 511.695 928.516, 507.825 937.736, 503.955 946.957, 500.085 956.178, 496.215 965.399, 492.345 974.619, 488.474 983.840, 484.604 993.061, 480.734 1002.282, 476.864 1011.502, 472.994 1020.723, 469.124 1029.944, 465.254 1039.165, 461.384 1048.385, 457.513 1057.606, 453.643 1064.280, 450.842 " />
        </g>
    </g>
</svg>
