<?xml version='1.0' encoding='ascii'?>
<svg xmlns="http://www.w3.org/2000/svg" xmlns:inkscape="http://www.inkscape.org/namespaces/inkscape" version="1.1" width="1080" height="1080">
    <g id="ViewLayer_LineSet" inkscape:groupmode="lineset" inkscape:label="ViewLayer_LineSet">
        <g xmlns:inkscape="http://www.inkscape.org/namespaces/inkscape" inkscape:groupmode="layer" inkscape:label="fills" id="fills">
            <path fill_rule="evenodd" stroke="none" fill-opacity="1.0" fill="rgb(204, 204, 204)" d=" M 382.424, 391.572 298.390, 426.843 87.812, 515.227 87.812, 556.334 286.775, 650.319 497.353, 561.935 535.733, 580.065 619.767, 544.794 619.767, 503.688 382.424, 391.572  z" />
        </g>
        <g inkscape:groupmode="layer" id="strokes" inkscape:label="strokes">
            <path fill="none" stroke-width="3.0" stroke-linecap="butt" stroke-opacity="1.0" stroke="rgb(0, 0, 0)" stroke-linejoin="miter" d=" M 497.353, 520.829 488.132, 524.699 478.911, 528.569 469.691, 532.439 460.470, 536.309 451.249, 540.179 442.028, 544.049 432.808, 547.919 423.587, 551.790 414.366, 555.660 405.145, 559.530 395.925, 563.400 386.704, 567.270 377.483, 571.140 368.262, 575.010 359.042, 578.881 349.821, 582.751 340.600, 586.621 331.380, 590.491 322.159, 594.361 312.938, 598.231 303.717, 602.101 294.497, 605.972 286.775, 609.213 " />
            <path fill="none" stroke-width="3.0" stroke-linecap="butt" stroke-opacity="1.0" stroke="rgb(0, 0, 0)" stroke-linejoin="miter" d=" M 286.775, 650.319 286.775, 640.319 286.775, 630.319 286.775, 620.319 286.775, 610.319 286.775, 609.213 277.733, 604.941 268.691, 600.670 259.649, 596.399 250.607, 592.128 241.565, 587.857 232.523, 583.585 223.481, 579.314 214.439, 575.043 205.397, 570.772 196.355, 566.501 187.313, 562.229 178.271, 557.958 169.229, 553.687 160.187, 549.416 151.145, 545.144 142.103, 540.873 133.061, 536.602 124.020, 532.331 114.978, 528.060 105.936, 523.788 96.894, 519.517 87.812, 515.227 " />
            <path fill="none" stroke-width="3.0" stroke-linecap="butt" stroke-opacity="1.0" stroke="rgb(0, 0, 0)" stroke-linejoin="miter" d=" M 382.424, 391.572 373.203, 395.442 363.982, 399.312 354.762, 403.183 345.541, 407.053 336.320, 410.923 327.099, 414.793 317.879, 418.663 308.658, 422.533 299.437, 426.403 298.390, 426.843 289.169, 430.713 279.948, 434.583 270.728, 438.453 261.507, 442.323 252.286, 446.194 243.065, 450.064 233.845, 453.934 224.624, 457.804 215.403, 461.674 206.183, 465.544 196.962, 469.414 187.741, 473.285 178.520, 477.155 169.300, 481.025 160.079, 484.895 150.858, 488.765 141.637, 492.635 132.417, 496.505 123.196, 500.376 113.975, 504.246 104.754, 508.116 95.534, 511.986 87.812, 515.227 87.812, 525.227 87.812, 535.227 87.812, 545.227 87.812, 555.227 87.812, 556.334 96.854, 560.605 105.895, 564.876 114.937, 569.147 123.979, 573.419 133.021, 577.690 142.063, 581.961 151.105, 586.232 160.147, 590.503 169.189, 594.775 178.231, 599.046 187.273, 603.317 196.315, 607.588 205.357, 611.859 214.399, 616.131 223.441, 620.402 232.483, 624.673 241.525, 628.944 250.567, 633.215 259.609, 637.487 268.650, 641.758 277.692, 646.029 286.775, 650.319 295.995, 646.449 305.216, 642.579 314.437, 638.709 323.658, 634.839 332.878, 630.969 342.099, 627.098 351.320, 623.228 360.540, 619.358 369.761, 615.488 378.982, 611.618 388.203, 607.748 397.423, 603.878 406.644, 600.008 415.865, 596.137 425.086, 592.267 434.306, 588.397 443.527, 584.527 452.748, 580.657 461.969, 576.787 471.189, 572.917 480.410, 569.046 489.631, 565.176 497.353, 561.935 506.395, 566.206 515.437, 570.478 524.479, 574.749 533.521, 579.020 535.733, 580.065 544.954, 576.195 554.174, 572.325 563.395, 568.455 572.616, 564.585 581.836, 560.714 591.057, 556.844 600.278, 552.974 609.499, 549.104 618.719, 545.234 619.767, 544.794 619.767, 534.794 619.767, 524.794 619.767, 514.794 619.767, 504.794 619.767, 503.688 610.725, 499.416 601.683, 495.145 592.641, 490.874 583.599, 486.603 574.557, 482.332 565.515, 478.060 556.473, 473.789 547.431, 469.518 538.389, 465.247 529.347, 460.975 520.305, 456.704 511.263, 452.433 502.222, 448.162 493.180, 443.891 484.138, 439.619 475.096, 435.348 466.054, 431.077 457.012, 426.806 447.970, 422.535 438.928, 418.263 429.886, 413.992 420.844, 409.721 411.802, 405.450 402.760, 401.179 393.718, 396.907 382.424, 391.572 " />
            <path fill="none" stroke-width="3.0" stroke-linecap="butt" stroke-opacity="1.0" stroke="rgb(0, 0, 0)" stroke-linejoin="miter" d=" M 619.767, 503.688 610.546, 507.558 601.325, 511.428 592.105, 515.298 582.884, 519.168 573.663, 523.038 564.442, 526.908 555.222, 530.779 546.001, 534.649 536.780, 538.519 535.733, 538.958 " />
            <path fill="none" stroke-width="3.0" stroke-linecap="butt" stroke-opacity="1.0" stroke="rgb(0, 0, 0)" stroke-linejoin="miter" d=" M 535.733, 580.065 535.733, 570.065 535.733, 560.065 535.733, 550.065 535.733, 540.065 535.733, 538.958 526.691, 534.687 517.649, 530.416 508.607, 526.145 499.565, 521.874 497.353, 520.829 497.353, 530.829 497.353, 540.829 497.353, 550.829 497.353, 560.829 497.353, 561.935 " />
        </g>
    </g>
</svg>
